<svg width="192" height="55" viewBox="0 0 192 55" fill="none" xmlns="http://www.w3.org/2000/svg">
<rect width="192" height="55" fill="white"/>
<path d="M0 7.8259C0 7.9084 0.0155314 8.32575 0.313841 8.42657C0.443448 8.47886 0.622325 8.52901 0.832268 8.58672C1.87019 8.87357 3.6065 9.35348 3.727 11.526V40.5411C3.6065 42.7281 1.86912 43.207 0.831195 43.4933C0.621257 43.5511 0.443448 43.6017 0.326694 43.6486C0.0235648 43.7513 0 44.1784 0 44.3066V44.5609H10.029V44.3066C10.029 44.1784 10.0054 43.7513 9.70978 43.651C9.58181 43.6029 9.40933 43.5564 9.20905 43.503C8.12184 43.2126 6.30198 42.7277 6.30198 40.3465V28.6655H18.3693C20.7328 28.6655 21.2159 30.4967 21.5045 31.5902C21.5581 31.793 21.6041 31.9671 21.6497 32.0879C21.7536 32.4017 22.1697 32.4174 22.2516 32.4174H22.5039V23.3628H22.2516C22.1697 23.3628 21.7536 23.379 21.6529 23.6837C21.6031 23.8169 21.5559 23.9948 21.5008 24.2008C21.2201 25.2603 20.7494 27.0338 18.5766 27.1147H6.30198V9.12164L22.4444 9.12107C24.6156 9.24296 25.0928 10.9916 25.3772 12.0361C25.4356 12.2475 25.4849 12.4275 25.532 12.544C25.6353 12.8589 26.052 12.8746 26.134 12.8746H26.3862V7.57193H0V7.8259Z" fill="#324540"/>
<path d="M53.8857 7.8259C53.8857 7.9084 53.901 8.32575 54.1994 8.42657C54.3296 8.4789 54.5083 8.52905 54.718 8.58672C55.7559 8.87361 57.492 9.35348 57.6125 11.526V30.4433C57.6125 39.2471 51.6018 43.8532 45.6647 43.8532C42.6473 43.8532 39.858 42.6853 37.8116 40.5637C35.5312 38.1999 34.3042 34.7932 34.256 30.6978H34.3058V11.5357C34.3867 9.33787 36.1481 8.8639 37.2011 8.58134C37.4057 8.52634 37.5819 8.47834 37.7061 8.43143C38.0173 8.32575 38.0328 7.9084 38.0328 7.8259V7.57193H27.9524V7.8259C27.9524 7.9084 27.9679 8.32575 28.2663 8.42657C28.3958 8.4789 28.5747 8.52905 28.7847 8.58672C29.8226 8.87361 31.5589 9.35348 31.6794 11.526V30.4433C31.6794 40.8371 38.7242 45.5711 45.2698 45.5711C52.1686 45.5711 59.1525 40.3746 59.1525 30.4433V11.5357C59.2328 9.34273 61.0211 8.86714 62.0887 8.58296C62.2984 8.52743 62.4783 8.4789 62.6041 8.43143C62.9154 8.32575 62.9314 7.9084 62.9314 7.8259V7.57193H53.8857V7.8259Z" fill="#324540"/>
<path d="M70.799 9.1218H75.0503C82.9319 9.1218 86.5221 13.4883 86.5221 17.5454C86.5221 21.6025 82.9319 25.9685 75.0503 25.9685H70.799V9.1218ZM114.651 51.7942L114.414 51.8197C99.1885 53.5045 91.3213 43.4977 85.0005 35.4619C82.3692 32.1172 80.0668 29.1887 77.5881 27.4902C85.7252 27.0507 89.4049 22.0743 89.3691 17.4931C89.3322 12.7146 85.2568 7.57156 76.3955 7.57156H64.4967V7.82606C64.4967 7.90856 64.5124 8.32539 64.8108 8.42621C64.941 8.47906 65.1197 8.52864 65.3298 8.58688C66.3669 8.87377 68.1037 9.35364 68.2238 11.5261V40.3461C68.2238 42.7273 66.4038 43.2126 65.3169 43.5034C65.1169 43.556 64.9446 43.6025 64.8241 43.6482C64.5204 43.7513 64.4967 44.1783 64.4967 44.3065V44.5613H74.5779V44.3065C74.5779 44.1783 74.5542 43.7513 74.2582 43.651C74.1248 43.6004 73.9453 43.5527 73.7368 43.4973C72.6692 43.2142 70.8817 42.7399 70.799 40.55V27.5188H72.9218C76.0163 27.591 79.737 32.2428 84.0454 37.6296C90.3179 45.4713 97.8059 54.8334 106.913 54.8326C109.294 54.8326 111.788 54.192 114.399 52.7163C114.695 52.5675 114.722 52.2152 114.691 52.0304L114.651 51.7942Z" fill="#324540"/>
<path d="M127.131 26.0665C127.131 36.1714 120.119 43.7921 110.819 43.7921C101.52 43.7921 94.5078 36.1714 94.5078 26.0665C94.5078 15.9606 101.52 8.33982 110.819 8.33982C120.119 8.33982 127.131 15.9606 127.131 26.0665ZM110.819 6.78955C100.262 6.78955 91.6736 15.437 91.6736 26.0665C91.6736 36.695 100.262 45.3422 110.819 45.3422C121.377 45.3422 129.965 36.695 129.965 26.0665C129.965 15.437 121.377 6.78955 110.819 6.78955Z" fill="#324540"/>
<path d="M153.556 17.5454C153.556 19.7412 152.547 21.7901 150.716 23.3151C148.632 25.0513 145.646 25.9685 142.084 25.9685H137.833V9.12183H142.084C149.966 9.12183 153.556 13.4884 153.556 17.5454ZM161.513 43.6506C161.309 43.5737 161.026 43.5167 160.698 43.4508C159.864 43.2822 158.744 43.0492 157.922 42.3451C155.415 39.855 153.36 37.2317 151.513 34.8602C149.137 31.8126 147.057 29.1445 144.625 27.4897C152.76 27.0497 156.439 22.0727 156.403 17.4931C156.366 12.7146 152.291 7.57159 143.43 7.57159H131.53V7.82609C131.53 7.90807 131.546 8.32594 131.845 8.42624C131.975 8.47909 132.153 8.52868 132.364 8.58691C133.401 8.87323 135.137 9.35368 135.258 11.5262V40.3462C135.258 42.7273 133.438 43.2126 132.351 43.5034C132.15 43.556 131.978 43.6025 131.858 43.6482C131.554 43.7513 131.53 44.1783 131.53 44.3065V44.5613H141.611V44.3065C141.611 44.1783 141.588 43.7513 141.292 43.651C141.159 43.6004 140.98 43.5527 140.771 43.4973C139.702 43.2142 137.913 42.739 137.833 40.5548V27.5188H139.956C143.044 27.591 146.518 31.9404 150.54 36.9766C152.418 39.3276 154.547 41.9929 156.844 44.4796L156.864 44.5019L156.858 44.5613H156.919H160.316H161.834V44.3065C161.834 44.1787 161.811 43.7557 161.513 43.6506Z" fill="#324540"/>
<path d="M191.625 39.2578C191.497 39.2578 191.073 39.2821 190.975 39.5792C190.654 40.4382 189.134 42.9134 186.448 43.0104H173.518C172.586 43.008 170.383 43.0209 170.293 40.5548V26.8419H182.553C184.706 26.961 185.16 28.6952 185.431 29.7321C185.489 29.9537 185.539 30.143 185.588 30.2632C185.689 30.57 186.114 30.5937 186.241 30.5937H186.493V21.5387H186.241C186.114 21.5387 185.688 21.563 185.592 21.8595C185.539 21.9981 185.491 22.1858 185.436 22.4025C185.151 23.5208 184.721 25.2108 182.566 25.2916H170.293V9.12164L185.399 9.12107C187.57 9.24296 188.047 10.9916 188.333 12.0361C188.39 12.2475 188.44 12.4275 188.487 12.544C188.588 12.8508 189.012 12.8746 189.14 12.8746H189.392V7.57193H163.99V7.8259C163.99 7.9084 164.006 8.32628 164.304 8.42657C164.434 8.47886 164.612 8.52901 164.822 8.58672C165.86 8.87357 167.597 9.35348 167.716 11.526V40.5411C167.597 42.7281 165.859 43.207 164.821 43.4933C164.612 43.5511 164.434 43.6017 164.317 43.6486C164.013 43.7513 163.99 44.1784 163.99 44.3066V44.5609H190.308L191.969 39.2578H191.625Z" fill="#324540"/>
<path d="M119.573 4.33367L124.084 4.3547L127.908 0.0199441L123.397 0L119.573 4.33367Z" fill="url(#paint0_linear_9_12)"/>
<defs>
<linearGradient id="paint0_linear_9_12" x1="119.573" y1="2.17726" x2="127.908" y2="2.17726" gradientUnits="userSpaceOnUse">
<stop stop-color="#906433"/>
<stop offset="0.0948718" stop-color="#B18659"/>
<stop offset="0.238462" stop-color="#DAB089"/>
<stop offset="0.321048" stop-color="#ECC9A4"/>
<stop offset="0.371795" stop-color="#ECC9A4"/>
<stop offset="0.510256" stop-color="#FFEECC"/>
<stop offset="0.585116" stop-color="#FFEECC"/>
<stop offset="0.746154" stop-color="#D2A983"/>
<stop offset="0.914167" stop-color="#D2A983"/>
<stop offset="0.95641" stop-color="#906433"/>
<stop offset="1" stop-color="#906433"/>
</linearGradient>
</defs>
</svg>
